<svg width="27" height="23" viewBox="0 0 27 23" fill="none" xmlns="http://www.w3.org/2000/svg">
<path d="M13.5448 5.20786e-07C10.3212 -0.000833307 7.20302 0.999636 4.75092 2.82151C2.29883 4.64338 0.673724 7.16713 0.16782 9.93894C-0.338084 12.7107 0.308407 15.5488 1.99104 17.9427C3.67368 20.3366 6.28207 22.1293 9.34718 22.9985H9.66313C9.95137 23.0108 10.234 22.9264 10.453 22.7628C10.5848 22.6629 10.6895 22.5388 10.7597 22.3996C10.8299 22.2603 10.8639 22.1092 10.8592 21.9572V21.7509V20.68C10.8502 20.6163 10.8265 20.5547 10.7897 20.4991C10.7529 20.4434 10.7036 20.3947 10.6448 20.3558C10.5806 20.3111 10.5059 20.2791 10.426 20.2621C10.3461 20.2452 10.2629 20.2436 10.1822 20.2576C7.14681 20.8274 6.50362 19.1769 6.46977 19.0688C6.08808 18.1943 5.40653 17.4431 4.51764 16.9173L4.34838 16.8093C4.48162 16.7532 4.62974 16.7295 4.77717 16.7405C5.0584 16.7773 5.32416 16.8761 5.54928 17.0274C5.7744 17.1787 5.95142 17.3775 6.06355 17.605C6.50007 18.2668 7.21438 18.7553 8.05619 18.9679C8.89801 19.1804 9.8017 19.1004 10.5771 18.7446C10.6609 18.7122 10.735 18.6635 10.7937 18.6022C10.8524 18.5408 10.8941 18.4686 10.9157 18.391C10.9614 17.94 11.1846 17.5166 11.5476 17.1924C11.6312 17.1296 11.6919 17.0468 11.722 16.9542C11.7521 16.8616 11.7503 16.7634 11.7168 16.6717C11.686 16.5799 11.6245 16.4982 11.5401 16.4369C11.4556 16.3757 11.3522 16.3377 11.2429 16.3279C8.56859 16.0626 5.82658 15.2472 5.82658 11.2291C5.80711 10.2187 6.23547 9.24058 7.02268 8.49797C7.09384 8.43013 7.14121 8.34598 7.1592 8.25546C7.1772 8.16494 7.16506 8.07182 7.12424 7.98711C6.81172 7.22075 6.81571 6.38354 7.13552 5.61947C8.17753 5.78158 9.15562 6.17019 9.97908 6.74925C10.0476 6.79004 10.126 6.81657 10.2082 6.82679C10.2903 6.83701 10.3741 6.83065 10.453 6.8082C11.4616 6.57401 12.501 6.45512 13.5448 6.45453C14.5928 6.4502 15.6366 6.56916 16.6479 6.8082C16.7249 6.83057 16.8069 6.83689 16.8873 6.82665C16.9676 6.81641 17.0441 6.7899 17.1106 6.74925C17.933 6.16873 18.9115 5.77993 19.9541 5.61947C20.2641 6.3755 20.2641 7.2016 19.9541 7.95763C19.9133 8.04304 19.9022 8.137 19.9223 8.22784C19.9424 8.31867 19.9927 8.40236 20.067 8.46849C20.842 9.20519 21.2656 10.1712 21.2518 11.1702C21.2518 15.1981 18.5098 16.0037 15.8242 16.2591C15.7149 16.2689 15.6114 16.3069 15.527 16.3681C15.4426 16.4294 15.3811 16.5111 15.3503 16.603C15.3177 16.6932 15.3164 16.7897 15.3465 16.8806C15.3766 16.9714 15.4368 17.0526 15.5195 17.1138C15.7691 17.3407 15.9598 17.6116 16.0785 17.9082C16.1973 18.2049 16.2414 18.5203 16.2078 18.8331V21.9572C16.2053 22.1099 16.2414 22.2612 16.3136 22.4004C16.3857 22.5397 16.4922 22.6634 16.6253 22.7628C16.7934 22.8743 16.9895 22.9494 17.1975 22.9818C17.4055 23.0143 17.6194 23.0032 17.8214 22.9494C20.8514 22.0517 23.4182 20.2486 25.0664 17.8599C26.7147 15.4712 27.3378 12.6514 26.8252 9.90084C26.3126 7.15023 24.6975 4.64662 22.2664 2.83417C19.8353 1.02172 16.7454 0.0176186 13.5448 5.20786e-07Z" fill="#ECEBF5"/>
</svg>
