<svg width="35" height="34" viewBox="0 0 35 34" fill="none" xmlns="http://www.w3.org/2000/svg">
<path d="M0.874997 11.0583H7.87497C7.87497 11.0583 8.74997 11.0584 8.74997 11.8482V32.3852C8.74997 32.3852 8.74997 33.1751 7.87497 33.1751H0.874997C0.874997 33.1751 0 33.1751 0 32.3852V11.8482C0 11.8482 1.15898e-07 11.0583 0.874997 11.0583Z" fill="#ECEBF5"/>
<path d="M4.34002 7.8987C5.20677 7.90496 6.05604 7.67866 6.78009 7.24852C7.50415 6.81838 8.07034 6.20377 8.40685 5.48268C8.74335 4.7616 8.835 3.96653 8.67017 3.19835C8.50533 2.43017 8.09144 1.7235 7.481 1.168C6.87057 0.612496 6.0911 0.233201 5.24149 0.0782331C4.39189 -0.0767342 3.51044 -0.000389436 2.70897 0.297581C1.90751 0.595552 1.22215 1.10172 0.739854 1.75186C0.257559 2.40201 6.30216e-05 3.16683 3.52843e-05 3.94929C-0.00226746 4.46586 0.108164 4.97778 0.325023 5.45583C0.541882 5.93387 0.860923 6.36867 1.26393 6.73541C1.66693 7.10215 2.14601 7.39364 2.67381 7.59324C3.20161 7.79283 3.76779 7.89663 4.34002 7.8987Z" fill="#ECEBF5"/>
<path d="M28.875 33.175H34.125C34.3571 33.175 34.5796 33.0918 34.7437 32.9436C34.9078 32.7955 35 32.5946 35 32.3851V19.1151C35 13.1593 31.2725 10.2684 26.0575 10.2684C25.0248 10.2352 23.9959 10.398 23.0373 10.7464C22.0788 11.0947 21.2118 11.6207 20.4925 12.2905C20.3948 12.3863 20.2659 12.4516 20.1244 12.4772C19.9829 12.5027 19.8361 12.4871 19.7051 12.4327C19.5727 12.388 19.4585 12.3083 19.3773 12.204C19.2961 12.0997 19.2517 11.9756 19.2501 11.8481C19.2501 11.6387 19.1579 11.4377 18.9938 11.2896C18.8297 11.1415 18.6071 11.0583 18.3751 11.0583H13.1251C13.0102 11.0583 12.8964 11.0787 12.7902 11.1184C12.6841 11.1581 12.5876 11.2163 12.5064 11.2896C12.4251 11.363 12.3607 11.45 12.3167 11.5459C12.2727 11.6417 12.2501 11.7444 12.2501 11.8481V32.3851C12.2501 32.5946 12.3423 32.7955 12.5064 32.9436C12.6705 33.0918 12.893 33.175 13.1251 33.175H18.3751C18.6071 33.175 18.8297 33.0918 18.9938 32.9436C19.1579 32.7955 19.2501 32.5946 19.2501 32.3851V20.5369C19.2501 19.4894 19.711 18.4849 20.5315 17.7442C21.3519 17.0035 22.4647 16.5874 23.625 16.5874C24.7854 16.5874 25.8982 17.0035 26.7186 17.7442C27.5391 18.4849 28 19.4894 28 20.5369V32.3851C28 32.5946 28.0922 32.7955 28.2563 32.9436C28.4204 33.0918 28.643 33.175 28.875 33.175Z" fill="#ECEBF5"/>
</svg>
