<svg width="21" height="19" viewBox="0 0 21 19" fill="none" xmlns="http://www.w3.org/2000/svg">
<path fill-rule="evenodd" clip-rule="evenodd" d="M20.042 0.21333C20.1262 0.284417 20.1941 0.369859 20.2418 0.464772C20.2896 0.559684 20.3163 0.662206 20.3203 0.766477C20.3244 0.870747 20.3058 0.974722 20.2655 1.07246C20.2253 1.17019 20.1642 1.25977 20.0858 1.33608L12.9663 8.26393L20.8243 17.7287C20.922 17.8466 20.9816 17.9869 20.9964 18.1338C21.0111 18.2807 20.9805 18.4285 20.9079 18.5605C20.8353 18.6925 20.7236 18.8035 20.5854 18.8811C20.4471 18.9587 20.2877 18.9999 20.1252 18.9999H15.3316C15.1961 19 15.0623 18.9715 14.941 18.9166C14.8197 18.8618 14.714 18.7821 14.6324 18.6839L9.1021 12.0244L2.19442 18.7474C2.11605 18.8237 2.02189 18.8852 1.91731 18.9285C1.81274 18.9717 1.6998 18.9959 1.58495 18.9995C1.47009 19.0032 1.35557 18.9862 1.24791 18.9497C1.14026 18.9132 1.04159 18.8578 0.95753 18.7867C0.873471 18.7156 0.805671 18.6302 0.758001 18.5353C0.710332 18.4404 0.683727 18.3379 0.679704 18.2337C0.675682 18.1295 0.694322 18.0255 0.734559 17.9279C0.774797 17.8302 0.835844 17.7406 0.914215 17.6644L8.03366 10.7365L0.175669 1.27176C0.0780014 1.15391 0.0184318 1.0137 0.00363521 0.866851C-0.0111614 0.720004 0.0193997 0.572319 0.0918938 0.440344C0.164388 0.30837 0.275951 0.197321 0.414082 0.11964C0.552213 0.0419592 0.711454 0.000716051 0.873962 0.000531957H5.66839C5.80379 0.00059292 5.93733 0.0291662 6.0585 0.0840033C6.17967 0.13884 6.28517 0.218445 6.36668 0.316553L11.897 6.97602L18.8038 0.253031C18.8822 0.17666 18.9763 0.115047 19.0809 0.0717157C19.1855 0.0283841 19.2985 0.00418306 19.4134 0.000495975C19.5283 -0.00319111 19.6429 0.0137081 19.7506 0.0502275C19.8583 0.0867469 19.9571 0.142171 20.0412 0.21333H20.042ZM11.1602 8.72843C11.1356 8.70254 11.1128 8.67522 11.092 8.64665L5.23173 1.58778H2.62845L15.7674 17.4127H18.3707L11.1602 8.72843Z" fill="#ECEBF5"/>
</svg>
