<svg width="261" height="240" viewBox="0 0 261 240" fill="none" xmlns="http://www.w3.org/2000/svg">
<rect width="261" height="240" fill="#F0E3E3"/>
<rect x="-136" y="-210" width="1280" height="1512" rx="30" fill="#080707"/>
<path d="M33.8785 42.0814L130.636 0L231.187 42.0814L261 120L231.187 207.692L130.636 240L33.8785 207.692L0 120L33.8785 42.0814Z" fill="white"/>
<path d="M99.6282 157.953L92.5393 73.6875H170.461L163.362 157.94L131.453 167.312L99.6282 157.953Z" fill="#1572B6"/>
<path d="M131.5 160.15L157.287 152.576L163.353 80.5789H131.5V160.15Z" fill="#33A9DC"/>
<path d="M131.5 111.107H144.409L145.299 100.524H131.5V90.189H155.961L155.727 92.9609L153.332 121.443H131.5V111.107Z" fill="white"/>
<path d="M131.56 137.948L131.516 137.961L120.652 134.851L119.958 126.609H110.164L111.53 142.836L131.513 148.715L131.56 148.701V137.948Z" fill="#EBEBEB"/>
<path d="M143.579 121.005L142.405 134.845L131.525 137.954V148.708L151.523 142.836L151.671 141.091L153.366 121.005H143.579Z" fill="white"/>
<path d="M131.535 90.189V100.524H107.97L107.775 98.2006L107.33 92.9609L107.096 90.189H131.535ZM131.5 111.107V121.443H120.772L120.576 119.119L120.134 113.879L119.901 111.107H131.5Z" fill="#EBEBEB"/>
<path d="M131.416 196.126L127.055 198.525C126.665 198.005 126.226 197.593 125.74 197.29C125.249 196.981 124.726 196.776 124.169 196.676C123.613 196.576 123.037 196.581 122.441 196.693C121.852 196.801 121.265 197.016 120.681 197.337C119.626 197.918 118.851 198.686 118.356 199.641C117.858 200.589 117.667 201.68 117.783 202.913C117.896 204.14 118.341 205.46 119.119 206.873C119.918 208.327 120.806 209.43 121.782 210.181C122.764 210.929 123.785 211.34 124.846 211.414C125.907 211.487 126.952 211.241 127.98 210.675C128.558 210.357 129.05 209.987 129.457 209.564C129.871 209.137 130.19 208.672 130.415 208.168C130.635 207.658 130.755 207.121 130.773 206.557C130.798 205.99 130.711 205.407 130.511 204.808L134.883 202.428C135.285 203.426 135.5 204.484 135.527 205.602C135.557 206.71 135.381 207.813 135.001 208.913C134.623 210.003 134.023 211.034 133.2 212.005C132.38 212.967 131.316 213.807 130.009 214.526C128.19 215.527 126.337 216.01 124.451 215.976C122.571 215.938 120.787 215.367 119.099 214.264C117.418 213.157 115.968 211.495 114.748 209.278C113.524 207.055 112.902 204.933 112.88 202.913C112.858 200.893 113.34 199.08 114.324 197.475C115.305 195.863 116.691 194.564 118.484 193.578C119.665 192.928 120.851 192.492 122.043 192.269C123.241 192.042 124.407 192.031 125.541 192.238C126.671 192.437 127.734 192.86 128.729 193.506C129.731 194.148 130.626 195.021 131.416 196.126ZM144.867 187.065C144.346 186.306 143.661 185.87 142.812 185.758C141.963 185.645 141.021 185.874 139.986 186.444C139.282 186.831 138.743 187.257 138.368 187.723C137.989 188.182 137.765 188.655 137.696 189.143C137.634 189.627 137.723 190.088 137.964 190.526C138.152 190.898 138.404 191.175 138.719 191.355C139.042 191.533 139.407 191.639 139.815 191.673C140.22 191.702 140.658 191.681 141.13 191.612C141.598 191.535 142.082 191.425 142.582 191.28L144.655 190.71C145.654 190.42 146.616 190.236 147.542 190.159C148.468 190.082 149.336 190.136 150.147 190.321C150.958 190.506 151.694 190.845 152.354 191.338C153.021 191.827 153.591 192.494 154.065 193.34C154.745 194.592 155.022 195.849 154.895 197.112C154.772 198.364 154.258 199.568 153.354 200.722C152.453 201.867 151.173 202.895 149.513 203.808C147.867 204.714 146.295 205.25 144.796 205.418C143.304 205.582 141.944 205.357 140.716 204.744C139.491 204.121 138.459 203.085 137.619 201.637L141.79 199.342C142.213 200 142.723 200.463 143.32 200.731C143.92 200.989 144.576 201.073 145.288 200.984C146.003 200.885 146.732 200.63 147.475 200.221C148.205 199.82 148.781 199.365 149.202 198.857C149.629 198.345 149.888 197.818 149.979 197.275C150.069 196.732 149.979 196.215 149.709 195.724C149.457 195.266 149.109 194.956 148.665 194.794C148.228 194.628 147.691 194.578 147.052 194.644C146.421 194.706 145.684 194.852 144.842 195.082L142.315 195.746C140.366 196.273 138.649 196.366 137.164 196.025C135.679 195.683 134.525 194.757 133.703 193.247C133.017 192.016 132.752 190.756 132.908 189.468C133.071 188.177 133.594 186.951 134.477 185.791C135.361 184.63 136.546 183.641 138.033 182.823C139.546 181.99 141.009 181.522 142.422 181.419C143.842 181.313 145.121 181.547 146.259 182.123C147.398 182.698 148.311 183.588 148.999 184.792L144.867 187.065ZM163.239 176.957C162.717 176.198 162.032 175.762 161.184 175.65C160.335 175.537 159.393 175.766 158.357 176.336C157.654 176.723 157.115 177.149 156.74 177.615C156.361 178.074 156.137 178.547 156.068 179.035C156.006 179.519 156.095 179.98 156.336 180.418C156.524 180.79 156.775 181.067 157.091 181.248C157.413 181.425 157.779 181.531 158.187 181.566C158.591 181.594 159.03 181.573 159.502 181.504C159.97 181.428 160.454 181.317 160.953 181.172L163.026 180.602C164.025 180.312 164.988 180.128 165.914 180.051C166.84 179.974 167.708 180.028 168.519 180.213C169.33 180.398 170.065 180.737 170.726 181.23C171.393 181.719 171.963 182.387 172.437 183.232C173.117 184.484 173.394 185.741 173.267 187.004C173.143 188.257 172.63 189.46 171.726 190.615C170.825 191.759 169.545 192.787 167.885 193.7C166.239 194.606 164.667 195.143 163.168 195.31C161.676 195.474 160.316 195.249 159.088 194.637C157.863 194.013 156.83 192.978 155.99 191.529L160.162 189.234C160.585 189.892 161.094 190.355 161.692 190.623C162.292 190.881 162.948 190.965 163.66 190.876C164.374 190.777 165.104 190.523 165.847 190.114C166.577 189.712 167.153 189.257 167.573 188.749C168.001 188.237 168.26 187.71 168.35 187.167C168.441 186.624 168.351 186.107 168.081 185.616C167.829 185.158 167.481 184.848 167.037 184.686C166.6 184.52 166.062 184.47 165.424 184.536C164.792 184.598 164.056 184.744 163.214 184.974L160.687 185.638C158.737 186.165 157.02 186.258 155.535 185.917C154.05 185.575 152.897 184.649 152.074 183.139C151.389 181.908 151.124 180.648 151.28 179.361C151.443 178.069 151.966 176.843 152.849 175.683C153.732 174.522 154.918 173.533 156.404 172.715C157.918 171.883 159.381 171.415 160.794 171.312C162.214 171.205 163.493 171.439 164.631 172.015C165.769 172.591 166.683 173.48 167.371 174.684L163.239 176.957Z" fill="#04B0F9"/>
</svg>
