<svg width="261" height="240" viewBox="0 0 261 240" fill="none" xmlns="http://www.w3.org/2000/svg">
<rect width="261" height="240" fill="#F0E3E3"/>
<rect x="-136" y="-663" width="1280" height="1512" rx="30" fill="#080707"/>
<path d="M33.8785 42.0814L130.636 -4.41884e-05L231.187 42.0814L261 120L231.187 207.692L130.636 240L33.8785 207.692L0 120L33.8785 42.0814Z" fill="white"/>
<path d="M95.5656 72.7209V69.6392C95.2104 69.6394 94.8592 69.728 94.534 69.8996C94.2089 70.0712 93.917 70.3219 93.6767 70.6358C93.4364 70.9498 93.253 71.3203 93.1381 71.7237C93.0232 72.1272 92.9792 72.5549 93.0091 72.9797L95.5656 72.7209ZM167.434 72.7209L169.991 72.9797C170.021 72.5549 169.977 72.1272 169.862 71.7237C169.747 71.3203 169.564 70.9498 169.323 70.6358C169.083 70.3219 168.791 70.0712 168.466 69.8996C168.141 69.728 167.79 69.6394 167.434 69.6392V72.7209ZM162.301 146.682L163.112 149.604C163.589 149.413 164.008 149.058 164.318 148.584C164.628 148.109 164.816 147.536 164.857 146.935L162.301 146.682ZM131.5 159.009L130.689 161.931C131.215 162.142 131.785 162.142 132.311 161.931L131.5 159.009ZM100.699 146.682L98.1426 146.935C98.184 147.536 98.3715 148.109 98.6818 148.584C98.992 149.058 99.4114 149.413 99.888 149.604L100.699 146.682ZM116.1 91.2112V88.1295H113.533V91.2112H116.1ZM116.1 109.702H113.533V112.783H116.1V109.702ZM146.9 109.702H149.467V106.62H146.9V109.702ZM146.9 128.192L147.712 131.113L149.467 130.411V128.192H146.9ZM131.5 134.355L130.689 137.277L131.5 137.603L132.311 137.277L131.5 134.355ZM116.1 128.192H113.533V130.411L115.288 131.113L116.1 128.192ZM95.5656 75.8026H167.434V69.6392H95.5656V75.8026ZM164.878 72.462L159.744 146.423L164.857 146.935L169.991 72.9797L164.878 72.462ZM161.49 143.761L130.689 156.088L132.311 161.931L163.112 149.604L161.49 143.761ZM132.311 156.088L101.51 143.761L99.888 149.604L130.689 161.931L132.311 156.088ZM103.256 146.43L98.122 72.4682L93.0091 72.9797L98.1426 146.935L103.256 146.43ZM149.467 88.1295H116.1V94.2929H149.467V88.1295ZM113.533 91.2112V109.702H118.666V91.2112H113.533ZM116.1 112.783H146.9V106.62H116.1V112.783ZM144.334 109.702V128.192H149.467V109.702H144.334ZM146.089 125.27L130.689 131.434L132.311 137.277L147.712 131.113L146.089 125.27ZM132.311 131.434L116.911 125.27L115.288 131.113L130.689 137.277L132.311 131.434ZM118.666 128.192V118.947H113.533V128.192H118.666Z" fill="#699BF7"/>
<path d="M135.715 224.276L124.497 203.886L128.808 201.514L133.437 209.927L142.188 205.112L137.56 196.699L141.861 194.333L153.079 214.723L148.778 217.089L144.144 208.666L135.392 213.481L140.027 221.904L135.715 224.276ZM146.594 196.359L144.639 192.804L161.385 183.591L163.34 187.145L157.098 190.58L166.361 207.416L162.099 209.76L152.837 192.924L146.594 196.359ZM164.143 182.073L169.459 179.148L182.612 189.759L182.851 189.627L180.929 172.838L186.246 169.913L197.464 190.303L193.282 192.604L185.981 179.332L185.811 179.425L187.782 195.501L184.934 197.067L172.383 186.749L172.214 186.842L179.543 200.163L175.361 202.464L164.143 182.073ZM201.016 188.349L189.798 167.959L194.109 165.587L203.371 182.423L212.113 177.613L214.069 181.168L201.016 188.349Z" fill="#04B0F9"/>
</svg>
