<svg width="261" height="240" viewBox="0 0 261 240" fill="none" xmlns="http://www.w3.org/2000/svg">
<rect width="261" height="240" fill="#F0E3E3"/>
<rect x="-147" y="-1121" width="1280" height="1512" rx="30" fill="#080707"/>
<path d="M33.8785 42.0814L130.636 -4.41884e-05L231.187 42.0814L261 120L231.187 207.692L130.636 240L33.8785 207.692L0 120L33.8785 42.0814Z" fill="white"/>
<path d="M130.981 164.349C129.722 164.349 128.443 163.983 127.334 163.293L115.734 155.877C114.004 154.82 114.85 154.454 115.415 154.251C117.727 153.378 118.197 153.195 120.66 151.671C120.923 151.508 121.261 151.569 121.525 151.752L130.436 157.461C130.756 157.665 131.207 157.665 131.508 157.461L166.232 135.803C166.551 135.6 166.758 135.193 166.758 134.787V91.4699C166.758 91.0433 166.551 90.6572 166.213 90.4337L131.508 68.7955C131.188 68.5923 130.756 68.5923 130.436 68.7955L95.7493 90.454C95.4109 90.6572 95.2041 91.0636 95.2041 91.4902V134.787C95.2041 135.193 95.4109 135.6 95.7493 135.783L105.262 141.715C110.432 144.499 113.591 141.228 113.591 137.916V95.1677C113.591 94.5582 114.042 94.0909 114.606 94.0909H119.005C119.551 94.0909 120.021 94.5582 120.021 95.1677V137.936C120.021 145.373 116.261 149.639 109.737 149.639C107.725 149.639 106.146 149.639 101.747 147.282L92.6473 141.614C90.3912 140.212 89 137.591 89 134.767V91.4699C89 88.6661 90.3912 86.0248 92.6473 84.6229L127.334 62.9643C129.534 61.6234 132.448 61.6234 134.628 62.9643L169.353 84.6432C171.609 86.0451 173 88.6661 173 91.4902V134.787C173 137.591 171.609 140.212 169.353 141.634L134.628 163.293C133.519 163.983 132.26 164.349 130.981 164.349ZM159.013 121.662C159.013 113.555 153.936 111.401 143.277 109.878C132.485 108.334 131.395 107.541 131.395 104.819C131.395 102.563 132.316 99.5563 140.306 99.5563C147.432 99.5563 150.064 101.222 151.154 106.424C151.248 106.911 151.662 107.277 152.132 107.277H156.644C156.926 107.277 157.189 107.155 157.377 106.932C157.565 106.708 157.659 106.403 157.64 106.099C156.944 97.1385 151.436 92.9734 140.306 92.9734C130.398 92.9734 124.495 97.4839 124.495 105.062C124.495 113.271 130.38 115.546 139.874 116.562C151.248 117.761 152.132 119.569 152.132 121.987C152.132 126.172 149.011 127.96 141.697 127.96C132.504 127.96 130.492 125.461 129.816 120.524C129.74 119.996 129.327 119.61 128.819 119.61H124.326C123.762 119.61 123.329 120.097 123.329 120.687C123.329 127.005 126.507 134.543 141.716 134.543C152.696 134.523 159.013 129.83 159.013 121.662Z" fill="#699BF7"/>
<path d="M96.6612 199.788L100.922 197.444L108.745 211.661C109.468 212.975 109.8 214.279 109.743 215.574C109.692 216.864 109.29 218.058 108.536 219.156C107.783 220.253 106.715 221.182 105.335 221.942C104.107 222.617 102.873 223.015 101.633 223.135C100.397 223.245 99.2418 223.016 98.1683 222.448C97.0912 221.873 96.1835 220.907 95.4452 219.549L99.7363 217.188C100.045 217.718 100.409 218.119 100.826 218.391C101.247 218.653 101.696 218.786 102.175 218.791C102.656 218.785 103.149 218.644 103.653 218.366C104.184 218.074 104.57 217.715 104.811 217.288C105.055 216.852 105.151 216.358 105.098 215.807C105.046 215.257 104.841 214.656 104.483 214.006L96.6612 199.788ZM120.145 213.806C119.17 214.343 118.207 214.652 117.257 214.734C116.304 214.808 115.421 214.633 114.607 214.207C113.797 213.771 113.114 213.049 112.559 212.04C112.091 211.19 111.855 210.391 111.849 209.642C111.843 208.893 112.012 208.194 112.356 207.547C112.701 206.899 113.165 206.298 113.75 205.742C114.342 205.183 114.996 204.659 115.713 204.17C116.551 203.588 117.22 203.107 117.721 202.728C118.217 202.342 118.543 201.999 118.697 201.698C118.852 201.397 118.839 201.084 118.66 200.758L118.627 200.699C118.281 200.068 117.813 199.69 117.225 199.564C116.643 199.434 115.991 199.568 115.267 199.966C114.504 200.386 113.99 200.89 113.725 201.476C113.456 202.057 113.387 202.639 113.519 203.224L109.421 205.064C109.109 204.025 109.058 203.006 109.27 202.008C109.478 201.003 109.943 200.064 110.665 199.191C111.389 198.308 112.362 197.531 113.584 196.859C114.433 196.391 115.301 196.044 116.187 195.816C117.08 195.584 117.944 195.511 118.778 195.597C119.618 195.679 120.395 195.952 121.109 196.415C121.818 196.872 122.423 197.555 122.924 198.465L128.599 208.779L124.576 210.992L123.409 208.872L123.29 208.937C123.307 209.55 123.211 210.153 123 210.744C122.786 211.329 122.446 211.883 121.982 212.407C121.514 212.923 120.902 213.39 120.145 213.806ZM119.749 210.211C120.373 209.868 120.857 209.442 121.199 208.933C121.539 208.418 121.727 207.873 121.766 207.299C121.804 206.724 121.676 206.168 121.38 205.63L120.487 204.008C120.402 204.167 120.263 204.347 120.071 204.548C119.882 204.738 119.661 204.942 119.408 205.159C119.152 205.369 118.894 205.576 118.634 205.779C118.371 205.976 118.132 206.155 117.918 206.316C117.46 206.663 117.089 207.018 116.805 207.382C116.521 207.746 116.351 208.12 116.295 208.506C116.235 208.884 116.315 209.273 116.534 209.671C116.852 210.249 117.304 210.575 117.89 210.65C118.479 210.715 119.099 210.569 119.749 210.211ZM137.185 184.133L140.252 202.368L135.473 204.997L121.713 192.646L126.193 190.181L135.389 199.375L135.549 199.288L132.695 186.604L137.185 184.133ZM151.878 196.347C150.903 196.884 149.94 197.193 148.99 197.275C148.037 197.35 147.154 197.174 146.34 196.748C145.53 196.312 144.847 195.59 144.292 194.581C143.824 193.731 143.588 192.932 143.582 192.183C143.576 191.434 143.745 190.736 144.09 190.088C144.434 189.44 144.898 188.839 145.483 188.284C146.075 187.725 146.729 187.2 147.446 186.711C148.284 186.129 148.953 185.648 149.454 185.269C149.95 184.883 150.276 184.54 150.43 184.239C150.585 183.938 150.572 183.625 150.393 183.299L150.36 183.24C150.014 182.609 149.546 182.231 148.958 182.105C148.376 181.975 147.724 182.109 147 182.507C146.237 182.927 145.723 183.431 145.458 184.017C145.189 184.598 145.12 185.18 145.252 185.765L141.154 187.605C140.842 186.566 140.791 185.547 141.003 184.549C141.211 183.544 141.676 182.605 142.398 181.732C143.122 180.849 144.095 180.072 145.317 179.4C146.166 178.933 147.034 178.585 147.92 178.357C148.813 178.125 149.677 178.052 150.511 178.138C151.351 178.22 152.128 178.493 152.842 178.956C153.551 179.413 154.156 180.096 154.657 181.006L160.332 191.32L156.309 193.533L155.142 191.413L155.023 191.478C155.04 192.091 154.944 192.694 154.733 193.285C154.519 193.87 154.179 194.424 153.715 194.948C153.247 195.464 152.635 195.931 151.878 196.347ZM151.482 192.752C152.106 192.409 152.59 191.983 152.933 191.474C153.272 190.959 153.46 190.414 153.499 189.84C153.537 189.265 153.409 188.709 153.113 188.171L152.22 186.549C152.135 186.708 151.996 186.888 151.804 187.089C151.615 187.279 151.394 187.483 151.141 187.7C150.885 187.91 150.627 188.117 150.367 188.32C150.104 188.517 149.865 188.696 149.651 188.857C149.193 189.204 148.822 189.559 148.538 189.923C148.254 190.287 148.084 190.661 148.028 191.047C147.968 191.425 148.048 191.814 148.267 192.212C148.585 192.79 149.037 193.116 149.623 193.191C150.212 193.256 150.832 193.11 151.482 192.752ZM166.771 168.854C166.25 168.095 165.564 167.659 164.716 167.547C163.867 167.434 162.925 167.663 161.89 168.233C161.186 168.62 160.647 169.046 160.272 169.512C159.893 169.971 159.669 170.444 159.6 170.932C159.538 171.416 159.627 171.877 159.868 172.315C160.056 172.687 160.308 172.964 160.623 173.145C160.946 173.322 161.311 173.428 161.719 173.463C162.124 173.491 162.562 173.47 163.034 173.401C163.502 173.325 163.986 173.214 164.486 173.069L166.559 172.499C167.557 172.209 168.52 172.025 169.446 171.948C170.372 171.871 171.24 171.925 172.051 172.11C172.862 172.295 173.598 172.634 174.258 173.127C174.925 173.616 175.495 174.283 175.969 175.129C176.649 176.381 176.926 177.638 176.799 178.901C176.676 180.154 176.162 181.357 175.258 182.512C174.357 183.656 173.077 184.684 171.417 185.597C169.771 186.503 168.199 187.04 166.7 187.207C165.208 187.371 163.848 187.146 162.62 186.533C161.395 185.91 160.363 184.874 159.522 183.426L163.694 181.131C164.117 181.789 164.627 182.252 165.224 182.52C165.824 182.778 166.48 182.862 167.192 182.773C167.907 182.674 168.636 182.42 169.379 182.011C170.109 181.609 170.685 181.154 171.106 180.646C171.533 180.134 171.792 179.607 171.882 179.064C171.973 178.521 171.883 178.004 171.613 177.513C171.361 177.055 171.013 176.745 170.569 176.583C170.132 176.417 169.594 176.367 168.956 176.433C168.325 176.495 167.588 176.641 166.746 176.871L164.219 177.535C162.27 178.062 160.553 178.155 159.068 177.814C157.583 177.472 156.429 176.546 155.607 175.036C154.921 173.805 154.656 172.545 154.812 171.258C154.975 169.966 155.498 168.74 156.381 167.58C157.265 166.419 158.45 165.43 159.937 164.612C161.45 163.779 162.913 163.312 164.326 163.208C165.746 163.102 167.025 163.336 168.163 163.912C169.302 164.488 170.215 165.377 170.903 166.581L166.771 168.854ZM189.068 175.899C187.501 176.761 185.971 177.171 184.478 177.128C182.987 177.074 181.613 176.62 180.355 175.764C179.104 174.905 178.053 173.702 177.202 172.155C176.341 170.589 175.887 169.049 175.841 167.535C175.798 166.011 176.154 164.608 176.911 163.327C177.664 162.04 178.814 160.971 180.36 160.12C181.694 159.386 182.996 158.985 184.265 158.918C185.533 158.851 186.701 159.095 187.767 159.65C188.833 160.205 189.721 161.057 190.431 162.205L186.429 164.407C185.896 163.706 185.259 163.256 184.519 163.058C183.782 162.85 183.025 162.96 182.248 163.387C181.591 163.748 181.116 164.243 180.822 164.872C180.531 165.49 180.436 166.213 180.536 167.04C180.636 167.867 180.951 168.761 181.481 169.724C182.017 170.699 182.607 171.456 183.248 171.994C183.897 172.527 184.565 172.839 185.253 172.927C185.942 173.015 186.614 172.878 187.272 172.517C187.756 172.25 188.136 171.911 188.411 171.5C188.694 171.086 188.857 170.62 188.901 170.103C188.948 169.575 188.863 169.021 188.647 168.44L192.649 166.238C193.226 167.442 193.473 168.646 193.392 169.85C193.313 171.043 192.913 172.162 192.191 173.208C191.47 174.254 190.428 175.151 189.068 175.899ZM198.449 170.349L190.035 155.056L194.147 152.794L195.615 155.462L195.774 155.374C195.531 154.272 195.605 153.298 195.995 152.452C196.382 151.599 197.004 150.937 197.86 150.466C198.072 150.349 198.308 150.236 198.569 150.128C198.829 150.019 199.065 149.937 199.276 149.881L201.347 153.645C201.115 153.694 200.81 153.793 200.433 153.94C200.055 154.087 199.721 154.241 199.429 154.402C198.805 154.745 198.322 155.188 197.98 155.73C197.642 156.262 197.462 156.846 197.439 157.481C197.423 158.112 197.587 158.739 197.93 159.363L202.69 168.015L198.449 170.349ZM209.921 164.037L201.507 148.744L205.749 146.411L214.162 161.704L209.921 164.037ZM202.553 145.601C201.923 145.948 201.267 146.036 200.585 145.866C199.907 145.686 199.405 145.301 199.08 144.71C198.759 144.126 198.705 143.503 198.92 142.84C199.138 142.167 199.562 141.657 200.192 141.31C200.823 140.963 201.477 140.879 202.156 141.059C202.837 141.229 203.339 141.606 203.66 142.19C203.985 142.781 204.039 143.413 203.821 144.086C203.606 144.749 203.184 145.254 202.553 145.601ZM220.715 165.569L209.146 144.542L213.328 142.241L214.741 144.81L214.93 144.706C214.89 144.192 214.928 143.626 215.046 143.007C215.168 142.379 215.435 141.765 215.849 141.165C216.266 140.555 216.902 140.015 217.758 139.544C218.873 138.93 220.063 138.656 221.327 138.722C222.587 138.781 223.821 139.239 225.027 140.097C226.231 140.948 227.314 142.25 228.278 144.002C229.217 145.708 229.734 147.3 229.829 148.778C229.928 150.246 229.672 151.541 229.062 152.663C228.455 153.776 227.57 154.651 226.409 155.29C225.586 155.743 224.81 155.992 224.083 156.038C223.363 156.08 222.707 155.995 222.115 155.785C221.52 155.567 221.009 155.299 220.583 154.98L220.454 155.052L224.957 163.236L220.715 165.569ZM217.505 149.904C218.005 150.813 218.568 151.537 219.192 152.075C219.817 152.613 220.472 152.94 221.158 153.056C221.841 153.164 222.524 153.031 223.208 152.655C223.898 152.275 224.378 151.764 224.648 151.123C224.914 150.475 224.983 149.745 224.856 148.933C224.733 148.11 224.426 147.255 223.937 146.365C223.451 145.482 222.901 144.773 222.286 144.238C221.672 143.703 221.022 143.377 220.336 143.262C219.65 143.147 218.958 143.281 218.261 143.664C217.571 144.044 217.087 144.548 216.81 145.176C216.54 145.8 216.463 146.517 216.579 147.326C216.696 148.135 217.005 148.994 217.505 149.904ZM235.022 130.305L236.775 133.491L227.566 138.558L225.813 135.372L235.022 130.305ZM225.888 130.558L230.129 128.224L237.973 142.481C238.189 142.873 238.417 143.146 238.657 143.299C238.893 143.445 239.141 143.504 239.401 143.473C239.667 143.439 239.943 143.343 240.229 143.186C240.428 143.077 240.618 142.95 240.799 142.808C240.976 142.658 241.112 142.544 241.207 142.466L243.611 145.255C243.435 145.438 243.178 145.679 242.841 145.977C242.507 146.282 242.07 146.596 241.53 146.919C240.53 147.521 239.559 147.878 238.617 147.99C237.682 148.098 236.822 147.94 236.035 147.516C235.249 147.093 234.584 146.378 234.039 145.373L225.888 130.558Z" fill="#04B0F9"/>
</svg>
